<svg id="Hombres" xmlns="http://www.w3.org/2000/svg" viewBox="0 0 291.14 239.78"><defs><style>.cls-1{font-size:50.86px;stroke:#666;stroke-miterlimit:10;stroke-width:0.5px;font-family:BrushScriptMT, Brush Script MT;}</style></defs><path d="M168.88,91.34a2.24,2.24,0,0,1-2.24-2.24c0-12.79-5.14-18.5-10.1-24-4.15-4.62-8.07-9-8.07-16.61a23,23,0,0,1,22.8-23.23,22.23,22.23,0,0,1,14.15,5,2.24,2.24,0,1,1-2.82,3.49,17.83,17.83,0,0,0-11.33-4A18.55,18.55,0,0,0,153,48.45c0,5.9,3,9.3,6.93,13.61,5,5.59,11.24,12.53,11.24,27A2.24,2.24,0,0,1,168.88,91.34ZM125,79.78a2.24,2.24,0,0,1-2.24-2.25c0-12.49-5.12-18.08-10.08-23.49-4-4.34-8.09-8.83-8.09-16.31a22.81,22.81,0,0,1,35-19.28,2.25,2.25,0,0,1-2.4,3.8,18.31,18.31,0,0,0-28.11,15.48c0,5.74,3,9.07,6.92,13.28,5,5.48,11.25,12.29,11.25,26.52A2.25,2.25,0,0,1,125,79.78Z"/><path d="M127,148.07a2.24,2.24,0,0,1-.94-4.28c27.46-12.77,38.9-17.52,42.2-17.52,3.45,0,15.2,4.77,40.57,16.46a2.25,2.25,0,0,1-1.88,4.09c-23.1-10.66-36.12-16.06-38.69-16.06-3.58,0-31.22,12.87-40.31,17.1A2.3,2.3,0,0,1,127,148.07Zm-8.25-9.75a2.24,2.24,0,0,1-1-4.25c13.38-6.7,17.93-9.59,19.39-10.83,4.76-4,7-12.87,7.69-16.48a10.61,10.61,0,0,1,4.71-6.9,35.2,35.2,0,0,1,37.44,0,10.61,10.61,0,0,1,4.71,6.9c.73,3.61,2.94,12.45,7.68,16.47,2.7,2.3,10.46,6.22,16.07,9a2.25,2.25,0,0,1-2,4c-9.49-4.67-14.58-7.53-17-9.58-5.6-4.76-8.15-14-9.17-19a6.18,6.18,0,0,0-2.74-4,30.67,30.67,0,0,0-32.57,0,6.18,6.18,0,0,0-2.75,4c-1,5-3.56,14.24-9.18,19-2.43,2.07-9.07,5.81-20.29,11.43A2.29,2.29,0,0,1,118.75,138.32Zm-34.91-3A2.24,2.24,0,0,1,82.9,131c33-15.35,39.85-17.32,42.14-17.32,1.41,0,6.87,1.88,9.16,2.69a2.24,2.24,0,1,1-1.5,4.23,78.71,78.71,0,0,0-7.78-2.44c-1.34,0-8.52,2.2-40.13,16.91A2.15,2.15,0,0,1,83.84,135.32Zm-8.23-9.59a2.25,2.25,0,0,1-1-4.26c10.66-5.32,17.16-9,19.32-10.79,4.75-4,7-12.87,7.68-16.48a10.64,10.64,0,0,1,4.72-6.89A34.31,34.31,0,0,1,125,81.92c10.17,0,16.55,3.81,18.81,5.45a31.34,31.34,0,0,1,5.7,5.6,2.25,2.25,0,1,1-3.61,2.67A26.66,26.66,0,0,0,141.22,91c-1.49-1.08-7.08-4.6-16.18-4.6a29.91,29.91,0,0,0-16.29,4.67,6.2,6.2,0,0,0-2.74,4c-1,5-3.56,14.24-9.18,19-2.51,2.14-8.94,5.76-20.22,11.39A2.23,2.23,0,0,1,75.61,125.73ZM267,82.9c-5.93,0-10.75-5.84-10.75-13s4.82-13,10.75-13,10.75,5.84,10.75,13S273,82.9,267,82.9Zm0-21.54c-3.45,0-6.26,3.83-6.26,8.53s2.81,8.52,6.26,8.52,6.26-3.83,6.26-8.52S270.47,61.36,267,61.36ZM253,79.44a2.48,2.48,0,0,1-.54-.06l-94-23.18a2.24,2.24,0,0,1-1.64-2.71,2.26,2.26,0,0,1,2.72-1.65l94,23.18a2.24,2.24,0,0,1-.53,4.42Zm2.22-18.62a1.79,1.79,0,0,1-.51-.07l-89-21.9a2.12,2.12,0,1,1,1-4.12l89,21.9a2.13,2.13,0,0,1-.51,4.19ZM143.7,52.5a2.05,2.05,0,0,1-.54-.07l-28.23-7a2.24,2.24,0,0,1-1.65-2.71A2.28,2.28,0,0,1,116,41.11l28.24,7a2.25,2.25,0,0,1-.54,4.43Zm7-19.81a2.46,2.46,0,0,1-.53-.06l-24.23-6A2.25,2.25,0,1,1,127,22.3l24.22,6a2.24,2.24,0,0,1-.54,4.42Zm-51.13,9.7a2.48,2.48,0,0,1-.54-.06L59.39,32.56c-.46-.15-7.47-2.57-7.47-13.12S59,6.76,59.34,6.68a2.28,2.28,0,0,1,1.13,0l48.26,11.9a2.25,2.25,0,0,1-1.08,4.36L60.09,11.2c-1.05.55-3.68,2.5-3.68,8.24,0,7.16,4.08,8.75,4.26,8.81L100.11,38a2.24,2.24,0,0,1-.53,4.42Z"/><path d="M47.33,208.68h-.21a2.24,2.24,0,0,1-2-2.44c.15-1.66,3.86-40.81,20.66-49.92,15.82-8.58,44.42-21.76,44.71-21.89a2.25,2.25,0,0,1,3,1.23c.45,1.15,11.63,28.43,54.5,28.43,42.71,0,51.28-28.18,51.63-29.38a2.24,2.24,0,0,1,1.25-1.44,2.22,2.22,0,0,1,1.9,0c.29.14,29.25,14.45,45,23,16.8,9.11,20.51,48.26,20.66,49.92a2.24,2.24,0,0,1-4.47.41c0-.39-3.64-38.42-18.33-46.38-13.18-7.15-35.61-18.33-42.69-21.84-3.33,7.64-16.41,30.15-55,30.15-39.44,0-54-22-57.69-29.13-6.81,3.16-29.16,13.63-42.41,20.82-14.71,8-18.29,46-18.33,46.37A2.24,2.24,0,0,1,47.33,208.68Z"/><path d="M4.53,195.71h-.2a2.25,2.25,0,0,1-2-2.44c.15-1.66,3.86-40.81,20.67-49.93,15.82-8.58,44.41-21.75,44.7-21.89a2.34,2.34,0,0,1,1.78,0,2.23,2.23,0,0,1,1.25,1.27c0,.07,3,7.39,11.28,14.49a2.25,2.25,0,0,1-2.92,3.42,48.94,48.94,0,0,1-11.53-14.12c-6.8,3.16-29.17,13.63-42.42,20.82-14.71,8-18.3,46-18.33,46.38A2.26,2.26,0,0,1,4.53,195.71Z"/><path d="M4.53,194.36H4.45a.89.89,0,0,1-.81-1c.14-1.63,3.78-40.08,20-48.86C39.38,136,67.94,122.8,68.22,122.66a.88.88,0,0,1,.71,0,.87.87,0,0,1,.5.51c0,.08,3,7.67,11.67,15a.91.91,0,0,1,.1,1.27.88.88,0,0,1-1.27.1,45.9,45.9,0,0,1-11.79-14.87c-4.83,2.24-29.47,13.71-43.69,21.42-15.33,8.32-19,47.05-19,47.44A.89.89,0,0,1,4.53,194.36Z"/><path d="M286.24,207.33a.89.89,0,0,1-.89-.81c0-.4-3.7-39.13-19-47.45-14.16-7.68-39-20-44-22.5-2,5.42-13.73,30.66-54.31,30.66-40.79,0-54.65-24.59-57-29.57-4.81,2.22-29.48,13.7-43.7,21.41-15.34,8.32-19,47.05-19,47.45a.92.92,0,0,1-1,.81.91.91,0,0,1-.81-1c.15-1.63,3.79-40.09,20-48.86,15.77-8.55,44.33-21.71,44.62-21.85a.92.92,0,0,1,.71,0,.87.87,0,0,1,.5.51c.12.29,11.88,29.29,55.76,29.29s52.84-30.06,52.93-30.36a.89.89,0,0,1,.49-.58.94.94,0,0,1,.77,0c.29.14,29.22,14.43,45,23,16.18,8.77,19.82,47.23,20,48.86a.91.91,0,0,1-.82,1Z"/><path d="M168.88,90a.9.9,0,0,1-.9-.9c0-13.3-5.54-19.48-10.43-24.93-4-4.44-7.74-8.62-7.74-15.72a21.7,21.7,0,0,1,21.46-21.88,21,21,0,0,1,13.31,4.71.91.91,0,0,1,.13,1.27.9.9,0,0,1-1.26.13,19.17,19.17,0,0,0-12.18-4.32,19.91,19.91,0,0,0-19.66,20.09c0,6.41,3.37,10.17,7.27,14.51,5.11,5.7,10.9,12.15,10.9,26.14A.9.9,0,0,1,168.88,90Z"/><path d="M125,78.43a.89.89,0,0,1-.89-.9c0-13-5.54-19.06-10.43-24.39-4-4.35-7.74-8.45-7.74-15.41A21.46,21.46,0,0,1,138.9,19.59a.9.9,0,0,1,.28,1.24.89.89,0,0,1-1.24.28,19.67,19.67,0,0,0-30.17,16.62c0,6.26,3.37,9.94,7.26,14.19,5.11,5.58,10.9,11.9,10.9,25.61A.9.9,0,0,1,125,78.43Z"/><path d="M118.75,137a.9.9,0,0,1-.4-1.7c13.5-6.76,18.15-9.73,19.67-11,4.89-4.15,7.19-12.58,8.13-17.24a9.36,9.36,0,0,1,4.12-6,33.88,33.88,0,0,1,36,0,9.33,9.33,0,0,1,4.12,6c.94,4.66,3.25,13.09,8.13,17.24,2.17,1.85,7.21,4.67,16.34,9.15a.9.9,0,0,1-.79,1.62c-9.27-4.55-14.42-7.45-16.71-9.4-5.3-4.5-7.74-13.37-8.73-18.25a7.57,7.57,0,0,0-3.33-4.88,32.1,32.1,0,0,0-34,0,7.51,7.51,0,0,0-3.34,4.88c-1,4.88-3.43,13.75-8.73,18.25-2.32,2-9.06,5.76-20,11.25A.82.82,0,0,1,118.75,137Z"/><path d="M127,146.72a.88.88,0,0,1-.81-.52.89.89,0,0,1,.44-1.19c26.56-12.35,38.63-17.39,41.63-17.39,3.2,0,15.16,4.89,40,16.34a.9.9,0,0,1-.75,1.63c-9.6-4.42-35.09-16.17-39.25-16.17-3.83,0-29.79,12.06-40.88,17.21A.85.85,0,0,1,127,146.72Z"/><path d="M83.84,134a.88.88,0,0,1-.81-.52.9.9,0,0,1,.43-1.19c33.14-15.41,39.6-17.2,41.58-17.2,1.32,0,8.41,2.51,8.71,2.62a.9.9,0,0,1,.55,1.14.91.91,0,0,1-1.15.55,71.35,71.35,0,0,0-8.12-2.51c-1.91,0-10.56,3-40.81,17A.85.85,0,0,1,83.84,134Z"/><path d="M75.61,124.38a.91.91,0,0,1-.81-.49.9.9,0,0,1,.41-1.21c10.9-5.44,17.3-9,19.59-11,4.88-4.16,7.19-12.59,8.13-17.24a9.28,9.28,0,0,1,4.12-6,33,33,0,0,1,18-5.18c10,0,16.34,4,18,5.2a30,30,0,0,1,5.4,5.31.91.91,0,0,1-.19,1.26.92.92,0,0,1-1.26-.19,27.66,27.66,0,0,0-5-4.92c-1.57-1.14-7.46-4.86-17-4.86A31.23,31.23,0,0,0,108,90a7.56,7.56,0,0,0-3.34,4.87c-1,4.88-3.42,13.75-8.72,18.26-2.39,2-8.92,5.7-19.95,11.2A.85.85,0,0,1,75.61,124.38Z"/><path d="M253,78.1a.83.83,0,0,1-.22,0l-94-23.17a.9.9,0,1,1,.43-1.75l94,23.18a.89.89,0,0,1,.66,1.08A.9.9,0,0,1,253,78.1Z"/><path d="M254.09,58.37l-.2,0L166.07,37.6a.8.8,0,0,1-.61-1,.85.85,0,0,1,1-.59l87.81,20.75a.8.8,0,0,1,.61,1A.83.83,0,0,1,254.09,58.37Z"/><path d="M143.7,51.15l-.22,0-28.23-7a.89.89,0,0,1-.66-1.08.91.91,0,0,1,1.09-.66l28.24,7a.9.9,0,0,1,.65,1.09A.89.89,0,0,1,143.7,51.15Z"/><path d="M99.58,41.05a.78.78,0,0,1-.22,0L59.71,31.25c-.32-.11-6.44-2.23-6.44-11.81S59.43,8.05,59.7,8a1,1,0,0,1,.45,0l48.26,11.9a.9.9,0,0,1-.44,1.74L60,9.78c-.95.36-4.91,2.31-4.91,9.66,0,8.22,4.95,10,5.16,10.08l39.57,9.76a.9.9,0,0,1-.21,1.77Z"/><path d="M150.71,31.35a.76.76,0,0,1-.21,0l-24.23-6a.9.9,0,1,1,.44-1.74l24.22,6a.9.9,0,0,1-.22,1.77Z"/><path d="M267,81.55c-5.18,0-9.4-5.23-9.4-11.66s4.22-11.67,9.4-11.67,9.4,5.23,9.4,11.67S272.21,81.55,267,81.55ZM267,60c-4.19,0-7.6,4.43-7.6,9.88s3.41,9.86,7.6,9.86,7.61-4.42,7.61-9.86S271.22,60,267,60Z"/><text class="cls-1" transform="translate(50.69 226.95) scale(1.02 1)">HOMBRES</text></svg>