<svg id="Mujeres" xmlns="http://www.w3.org/2000/svg" viewBox="0 0 291.14 239.78"><defs><style>.cls-1{font-size:52.87px;stroke:#666;stroke-miterlimit:10;stroke-width:0.5px;font-family:BrushScriptMT, Brush Script MT;}</style></defs><path d="M119.83,85.22c0-14.51,6.23-21.45,11.24-27,3.87-4.32,6.93-7.72,6.93-13.62a18.56,18.56,0,0,0-18.31-18.74,17.83,17.83,0,0,0-11.33,4,2.25,2.25,0,0,1-2.83-3.49,22.26,22.26,0,0,1,14.16-5,23,23,0,0,1,22.8,23.23c0,7.62-3.92,12-8.08,16.61-5,5.54-10.09,11.25-10.09,24a2.25,2.25,0,1,1-4.49,0Zm43.85-11.57c0-14.23,6.24-21,11.25-26.52,3.86-4.21,6.91-7.54,6.91-13.28a18.31,18.31,0,0,0-28.1-15.48,2.24,2.24,0,1,1-2.4-3.79,22.79,22.79,0,0,1,35,19.27c0,7.48-4.11,12-8.09,16.32-5,5.4-10.07,11-10.07,23.48a2.25,2.25,0,1,1-4.49,0Z"/><path d="M163,144c-9.09-4.23-36.74-17.07-40.31-17.1-2.57,0-15.59,5.4-38.69,16.06a2.25,2.25,0,0,1-1.88-4.09c25.36-11.68,37.12-16.46,40.57-16.46,3.3,0,14.74,4.75,42.2,17.52A2.24,2.24,0,1,1,163,144Zm8.19-9.77c-11.22-5.62-17.86-9.36-20.3-11.43-5.61-4.77-8.16-14-9.17-19a6.22,6.22,0,0,0-2.75-4,30.67,30.67,0,0,0-32.57,0,6.18,6.18,0,0,0-2.74,4c-1,5-3.57,14.25-9.18,19-2.41,2-7.49,4.91-17,9.58a2.25,2.25,0,0,1-2-4c5.61-2.74,13.37-6.67,16.07-9,4.74-4,7-12.86,7.67-16.47A10.66,10.66,0,0,1,104,96a35.2,35.2,0,0,1,37.44,0,10.67,10.67,0,0,1,4.71,6.9c.73,3.61,2.93,12.44,7.68,16.48,1.46,1.24,6,4.13,19.4,10.83a2.25,2.25,0,0,1-1,4.26A2.29,2.29,0,0,1,171.2,134.21Zm35-3c-31.62-14.71-38.79-16.9-40.13-16.91a78.71,78.71,0,0,0-7.78,2.44,2.24,2.24,0,1,1-1.5-4.23c2.28-.81,7.75-2.69,9.16-2.69,2.29,0,9.14,2,42.14,17.32a2.24,2.24,0,0,1-.95,4.28A2.11,2.11,0,0,1,206.17,131.23Zm8.18-9.61c-11.29-5.64-17.71-9.26-20.22-11.39-5.62-4.78-8.16-14-9.18-19a6.2,6.2,0,0,0-2.74-4,29.91,29.91,0,0,0-16.29-4.67c-9.11,0-14.69,3.52-16.19,4.6A27.37,27.37,0,0,0,145,91.77a2.24,2.24,0,1,1-3.6-2.68,31.54,31.54,0,0,1,5.69-5.6c2.27-1.64,8.65-5.45,18.82-5.45a34.34,34.34,0,0,1,18.72,5.39,10.65,10.65,0,0,1,4.71,6.89c.73,3.61,2.94,12.44,7.69,16.48,2.16,1.84,8.66,5.48,19.31,10.79a2.25,2.25,0,0,1-1,4.26A2.36,2.36,0,0,1,214.35,121.62ZM13.18,66c0-7.18,4.83-13,10.75-13s10.76,5.84,10.76,13S29.87,79,23.93,79,13.18,73.18,13.18,66Zm4.5,0c0,4.7,2.8,8.52,6.25,8.52s6.26-3.82,6.26-8.52-2.8-8.53-6.26-8.53S17.68,61.31,17.68,66Zm18.08,7.85a2.25,2.25,0,0,1,1.64-2.72l94-23.18a2.25,2.25,0,0,1,1.08,4.37l-94,23.17a2.5,2.5,0,0,1-.54.07A2.26,2.26,0,0,1,35.76,73.86ZM33.65,55.32a2.13,2.13,0,0,1,1.56-2.57l89-21.9a2.15,2.15,0,0,1,2.58,1.55A2.13,2.13,0,0,1,125.25,35l-89,21.91a2.31,2.31,0,0,1-.52.06A2.13,2.13,0,0,1,33.65,55.32Zm111.43-8.41a2.24,2.24,0,0,1,1.64-2.72l28.23-7a2.27,2.27,0,0,1,2.72,1.65A2.23,2.23,0,0,1,176,41.59l-28.23,7a2.13,2.13,0,0,1-.55.07A2.24,2.24,0,0,1,145.08,46.91Zm-7-19.8a2.25,2.25,0,0,1,1.65-2.72l24.22-6A2.24,2.24,0,1,1,165,22.78l-24.22,6a2.5,2.5,0,0,1-.54.07A2.26,2.26,0,0,1,138.06,27.11Zm51.14,9.7a2.25,2.25,0,0,1,1.64-2.72l39.45-9.71c.17-.07,4.26-1.66,4.26-8.82,0-5.74-2.64-7.69-3.69-8.24L183.31,19a2.25,2.25,0,1,1-1.08-4.36l48.26-11.9a2.4,2.4,0,0,1,1.13,0c.3.08,7.42,2.13,7.42,12.76s-7,13-7.47,13.12l-39.65,9.77a2,2,0,0,1-.54.07A2.26,2.26,0,0,1,189.2,36.81Z"/><path d="M243.63,204.8h.21a2.24,2.24,0,0,0,2-2.44c-.15-1.66-3.86-40.81-20.67-49.92-15.81-8.58-44.41-21.76-44.7-21.89a2.29,2.29,0,0,0-1.78,0,2.23,2.23,0,0,0-1.25,1.27c-.45,1.16-11.63,28.44-54.5,28.44-42.71,0-51.29-28.19-51.63-29.39a2.27,2.27,0,0,0-1.25-1.44,2.22,2.22,0,0,0-1.9,0c-.3.14-29.26,14.45-45,23-16.8,9.11-20.51,48.26-20.66,49.92a2.24,2.24,0,0,0,4.47.41c0-.39,3.64-38.42,18.33-46.38,13.18-7.14,35.61-18.33,42.69-21.84,3.33,7.64,16.41,30.16,55,30.16,39.43,0,54-22,57.68-29.14,6.81,3.17,29.17,13.63,42.41,20.82,14.72,8,18.3,46,18.34,46.37A2.24,2.24,0,0,0,243.63,204.8Z"/><path d="M286.42,191.83h.21a2.24,2.24,0,0,0,2-2.44c-.15-1.66-3.85-40.81-20.66-49.93-15.82-8.58-44.42-21.75-44.7-21.89a2.34,2.34,0,0,0-1.78,0,2.26,2.26,0,0,0-1.25,1.27c0,.07-3,7.39-11.28,14.49a2.25,2.25,0,0,0,2.91,3.42,48.72,48.72,0,0,0,11.54-14.12c6.79,3.16,29.17,13.63,42.42,20.82,14.71,8,18.3,46,18.33,46.38A2.25,2.25,0,0,0,286.42,191.83Z"/><path d="M286.43,190.48h.08a.9.9,0,0,0,.81-1c-.14-1.63-3.78-40.08-20-48.86-15.78-8.56-44.34-21.72-44.63-21.86a.88.88,0,0,0-.71,0,.93.93,0,0,0-.5.51c0,.08-3,7.67-11.66,15a.9.9,0,0,0-.1,1.27.88.88,0,0,0,1.27.1,46,46,0,0,0,11.79-14.87c4.83,2.24,29.47,13.71,43.68,21.42,15.34,8.32,19,47.05,19,47.45A.9.9,0,0,0,286.43,190.48Z"/><path d="M4.72,203.46a.9.9,0,0,0,.89-.82c0-.4,3.7-39.13,19-47.45,14.16-7.68,39-20,44-22.5,2,5.42,13.73,30.66,54.31,30.66,40.79,0,54.65-24.59,57-29.57,4.81,2.22,29.48,13.7,43.7,21.41,15.34,8.32,19,47.05,19,47.45a.9.9,0,0,0,1.79-.17c-.15-1.63-3.79-40.08-20-48.86-15.78-8.55-44.34-21.71-44.62-21.85a.92.92,0,0,0-.71,0,.87.87,0,0,0-.5.51c-.12.29-11.88,29.29-55.76,29.29S70.13,131.49,70,131.19a.88.88,0,0,0-.5-.58.92.92,0,0,0-.76,0c-.29.14-29.23,14.43-45,23C7.61,162.39,4,200.84,3.82,202.47a.91.91,0,0,0,.81,1Z"/><path d="M122.08,86.12a.89.89,0,0,0,.89-.9c0-13.3,5.55-19.48,10.44-24.93,4-4.44,7.73-8.62,7.73-15.72a21.69,21.69,0,0,0-21.45-21.88,21,21,0,0,0-13.31,4.71.9.9,0,0,0,1.13,1.4,19.23,19.23,0,0,1,12.18-4.32,19.91,19.91,0,0,1,19.66,20.09c0,6.41-3.37,10.17-7.27,14.52-5.11,5.69-10.9,12.14-10.9,26.13A.9.9,0,0,0,122.08,86.12Z"/><path d="M165.92,74.55a.9.9,0,0,0,.9-.9c0-13,5.54-19.06,10.43-24.39,4-4.35,7.74-8.45,7.74-15.41a21.46,21.46,0,0,0-32.94-18.13.9.9,0,0,0,1,1.51,19.67,19.67,0,0,1,30.17,16.62c0,6.26-3.37,9.94-7.26,14.19C170.82,53.62,165,59.94,165,73.65A.9.9,0,0,0,165.92,74.55Z"/><path d="M172.21,133.1a.9.9,0,0,0,.4-1.7c-13.5-6.76-18.15-9.72-19.67-11-4.89-4.15-7.19-12.58-8.13-17.24a9.32,9.32,0,0,0-4.12-6,33.83,33.83,0,0,0-36,0,9.28,9.28,0,0,0-4.12,6c-.94,4.66-3.25,13.1-8.13,17.24-2.17,1.85-7.21,4.67-16.34,9.15a.9.9,0,0,0-.41,1.21.89.89,0,0,0,1.2.41c9.27-4.55,14.42-7.45,16.71-9.4,5.3-4.5,7.74-13.37,8.73-18.25a7.49,7.49,0,0,1,3.33-4.87,32,32,0,0,1,34,0,7.5,7.5,0,0,1,3.34,4.87c1,4.88,3.42,13.75,8.72,18.25,2.33,2,9.06,5.76,20,11.25A.79.79,0,0,0,172.21,133.1Z"/><path d="M164,142.84a.9.9,0,0,0,.37-1.71c-26.57-12.35-38.63-17.39-41.63-17.39-3.2,0-15.16,4.89-40,16.34a.9.9,0,1,0,.76,1.63c9.59-4.42,35.08-16.17,39.25-16.17,3.83,0,29.79,12.06,40.88,17.21A.85.85,0,0,0,164,142.84Z"/><path d="M207.11,130.09a.9.9,0,0,0,.38-1.71c-33.13-15.41-39.59-17.2-41.57-17.2-1.32,0-8.41,2.51-8.71,2.62a.9.9,0,1,0,.6,1.69,71.4,71.4,0,0,1,8.11-2.51c1.92,0,10.56,3,40.81,17A.9.9,0,0,0,207.11,130.09Z"/><path d="M215.35,120.51a.9.9,0,0,0,.4-1.71c-10.9-5.44-17.31-9-19.59-11-4.89-4.16-7.19-12.59-8.13-17.24a9.28,9.28,0,0,0-4.12-6,33,33,0,0,0-18-5.17c-10,0-16.34,4-18,5.19a30,30,0,0,0-5.4,5.31.91.91,0,0,0,.19,1.26.92.92,0,0,0,1.26-.19,28.2,28.2,0,0,1,5-4.92c1.58-1.14,7.47-4.86,17-4.86a31.23,31.23,0,0,1,17,4.89,7.54,7.54,0,0,1,3.33,4.87c1,4.88,3.42,13.75,8.73,18.26,2.39,2,8.92,5.7,19.95,11.21A1,1,0,0,0,215.35,120.51Z"/><path d="M37.94,74.22a.83.83,0,0,0,.22,0l94-23.17a.9.9,0,0,0,.66-1.09.92.92,0,0,0-1.09-.66l-94,23.18a.89.89,0,0,0-.66,1.08A.9.9,0,0,0,37.94,74.22Z"/><path d="M36.87,54.49l.2,0,87.82-20.75a.8.8,0,0,0,.61-1,.85.85,0,0,0-1-.59L36.67,52.91a.8.8,0,0,0-.61,1A.82.82,0,0,0,36.87,54.49Z"/><path d="M147.26,47.27a.76.76,0,0,0,.21,0l28.24-7a.9.9,0,0,0-.43-1.75L147,45.5a.9.9,0,0,0,.22,1.77Z"/><path d="M191.38,37.17a.83.83,0,0,0,.22,0l39.64-9.77c.33-.11,6.45-2.23,6.45-11.81S231.52,4.17,231.26,4.1a.86.86,0,0,0-.45,0L182.55,16a.88.88,0,0,0-.65,1.08.9.9,0,0,0,1.09.66L231,5.9c.95.36,4.91,2.32,4.91,9.66,0,8.22-5,10-5.16,10.09L191.17,35.4a.9.9,0,0,0,.21,1.77Z"/><path d="M140.25,27.47l.21,0,24.22-6a.9.9,0,0,0,.66-1.09.91.91,0,0,0-1.09-.65L140,25.7a.9.9,0,0,0,.22,1.77Z"/><path d="M14.53,66c0-6.44,4.22-11.67,9.4-11.67S33.34,59.57,33.34,66s-4.22,11.66-9.41,11.66S14.53,72.44,14.53,66Zm1.8,0c0,5.44,3.41,9.86,7.6,9.86s7.61-4.42,7.61-9.86-3.41-9.87-7.61-9.87S16.33,60.57,16.33,66Z"/><text class="cls-1" transform="translate(5.17 224.71) scale(1.03 1)">MUJERES</text></svg>